<svg width="40" height="40" viewBox="0 0 40 40" fill="none" xmlns="http://www.w3.org/2000/svg">
<circle cx="20" cy="20" r="20" fill="#3A643B"/>
<path d="M25 15C26.5913 15 28.1174 15.6321 29.2426 16.7574C30.3679 17.8826 31 19.4087 31 21V28H27V21C27 20.4696 26.7893 19.9609 26.4142 19.5858C26.0391 19.2107 25.5304 19 25 19C24.4696 19 23.9609 19.2107 23.5858 19.5858C23.2107 19.9609 23 20.4696 23 21V28H19V21C19 19.4087 19.6321 17.8826 20.7574 16.7574C21.8826 15.6321 23.4087 15 25 15Z" stroke="white" stroke-linecap="round" stroke-linejoin="round"/>
<path d="M15 16H11V28H15V16Z" stroke="white" stroke-linecap="round" stroke-linejoin="round"/>
<path d="M13 13C14.1046 13 15 12.1046 15 11C15 9.89543 14.1046 9 13 9C11.8954 9 11 9.89543 11 11C11 12.1046 11.8954 13 13 13Z" stroke="white" stroke-linecap="round" stroke-linejoin="round"/>
</svg>
