<svg width="40" height="40" viewBox="0 0 40 40" fill="none" xmlns="http://www.w3.org/2000/svg">
<circle cx="20" cy="20" r="20" fill="#3A643B"/>
<path d="M32 12.0101C31.0424 12.6855 29.9821 13.2022 28.86 13.5401C28.2577 12.8476 27.4573 12.3567 26.567 12.134C25.6767 11.9112 24.7395 11.9673 23.8821 12.2945C23.0247 12.6218 22.2884 13.2045 21.773 13.9638C21.2575 14.7231 20.9877 15.6224 21 16.5401V17.5401C19.2426 17.5856 17.5013 17.1959 15.931 16.4055C14.3607 15.6151 13.0103 14.4487 12 13.0101C12 13.0101 8 22.0101 17 26.0101C14.9405 27.408 12.4872 28.109 10 28.0101C19 33.0101 30 28.0101 30 16.5101C29.9991 16.2315 29.9723 15.9537 29.92 15.6801C30.9406 14.6735 31.6608 13.4028 32 12.0101Z" stroke="white" stroke-linecap="round" stroke-linejoin="round"/>
</svg>
